<svg width="28" height="28" viewBox="0 0 28 28" fill="none" xmlns="http://www.w3.org/2000/svg">
<mask id="path-1-inside-1_709_486" fill="white">
<path d="M0 14C0 6.26801 6.26801 0 14 0C21.732 0 28 6.26801 28 14C28 21.732 21.732 28 14 28C6.26801 28 0 21.732 0 14Z"/>
</mask>
<path d="M14 28V27C6.8203 27 1 21.1797 1 14H0H-1C-1 22.2843 5.71573 29 14 29V28ZM28 14H27C27 21.1797 21.1797 27 14 27V28V29C22.2843 29 29 22.2843 29 14H28ZM14 0V1C21.1797 1 27 6.8203 27 14H28H29C29 5.71573 22.2843 -1 14 -1V0ZM14 0V-1C5.71573 -1 -1 5.71573 -1 14H0H1C1 6.8203 6.8203 1 14 1V0Z" fill="#110D57" mask="url(#path-1-inside-1_709_486)"/>
<path d="M15.6602 15.25H17.75L18.5898 11.9102H15.6602V10.25C15.6602 9.82031 15.7318 9.4362 15.875 9.09766C16.0182 8.75911 16.5065 8.58984 17.3398 8.58984H18.5898V5.77734C18.4466 5.76432 18.1471 5.74154 17.6914 5.70898C17.2357 5.67643 16.7409 5.66016 16.207 5.66016C15.0742 5.66016 14.1465 5.99544 13.4238 6.66602C12.7012 7.33659 12.3398 8.3099 12.3398 9.58594V11.9102H9.83984V15.25H12.3398V22.3398H15.6602V15.25Z" fill="#110D57"/>
</svg>
