<svg width="28" height="28" viewBox="0 0 28 28" fill="none" xmlns="http://www.w3.org/2000/svg">
<mask id="path-1-inside-1_709_487" fill="white">
<path d="M0 14C0 6.26801 6.26801 0 14 0C21.732 0 28 6.26801 28 14C28 21.732 21.732 28 14 28C6.26801 28 0 21.732 0 14Z"/>
</mask>
<path d="M14 28V27C6.8203 27 1 21.1797 1 14H0H-1C-1 22.2843 5.71573 29 14 29V28ZM28 14H27C27 21.1797 21.1797 27 14 27V28V29C22.2843 29 29 22.2843 29 14H28ZM14 0V1C21.1797 1 27 6.8203 27 14H28H29C29 5.71573 22.2843 -1 14 -1V0ZM14 0V-1C5.71573 -1 -1 5.71573 -1 14H0H1C1 6.8203 6.8203 1 14 1V0Z" fill="#110D57" mask="url(#path-1-inside-1_709_487)"/>
<path d="M14 6.73438C13.0104 6.73438 12.3594 6.73763 12.0469 6.74414C11.7344 6.75065 11.3828 6.76042 10.9922 6.77344C10.6146 6.78646 10.2858 6.82227 10.0059 6.88086C9.72591 6.93945 9.46875 7.01432 9.23438 7.10547C9 7.19661 8.77865 7.31055 8.57031 7.44727C8.36198 7.58398 8.15365 7.75 7.94531 7.94531C7.75 8.15365 7.58398 8.36198 7.44727 8.57031C7.31055 8.77865 7.19661 9 7.10547 9.23438C7.01432 9.46875 6.93945 9.72591 6.88086 10.0059C6.82227 10.2858 6.78646 10.6146 6.77344 10.9922C6.76042 11.3828 6.75065 11.7344 6.74414 12.0469C6.73763 12.3594 6.73438 13.0104 6.73438 14C6.73438 14.9896 6.73763 15.6406 6.74414 15.9531C6.75065 16.2656 6.76042 16.6107 6.77344 16.9883C6.78646 17.3789 6.82227 17.7142 6.88086 17.9941C6.93945 18.2741 7.01432 18.5312 7.10547 18.7656C7.19661 19 7.31055 19.2214 7.44727 19.4297C7.58398 19.638 7.75 19.8464 7.94531 20.0547C8.15365 20.25 8.36198 20.416 8.57031 20.5527C8.77865 20.6895 9 20.8034 9.23438 20.8945C9.46875 20.9857 9.72591 21.0605 10.0059 21.1191C10.2858 21.1777 10.6146 21.2135 10.9922 21.2266C11.3828 21.2396 11.7344 21.2493 12.0469 21.2559C12.3594 21.2624 13.0104 21.2656 14 21.2656C14.9896 21.2656 15.6406 21.2624 15.9531 21.2559C16.2656 21.2493 16.6107 21.2396 16.9883 21.2266C17.3789 21.2135 17.7142 21.1777 17.9941 21.1191C18.2741 21.0605 18.5312 20.9857 18.7656 20.8945C19 20.8034 19.2214 20.6895 19.4297 20.5527C19.638 20.416 19.8464 20.25 20.0547 20.0547C20.25 19.8464 20.416 19.638 20.5527 19.4297C20.6895 19.2214 20.8034 19 20.8945 18.7656C20.9857 18.5312 21.0605 18.2741 21.1191 17.9941C21.1777 17.7142 21.2135 17.3854 21.2266 17.0078C21.2396 16.6172 21.2493 16.2656 21.2559 15.9531C21.2624 15.6406 21.2656 14.9896 21.2656 14C21.2656 13.0104 21.2624 12.3594 21.2559 12.0469C21.2493 11.7344 21.2396 11.3828 21.2266 10.9922C21.2135 10.6146 21.1777 10.2858 21.1191 10.0059C21.0605 9.72591 20.9857 9.46875 20.8945 9.23438C20.8034 9 20.6895 8.77865 20.5527 8.57031C20.416 8.36198 20.25 8.15365 20.0547 7.94531C19.8464 7.75 19.638 7.58398 19.4297 7.44727C19.2214 7.31055 19 7.19661 18.7656 7.10547C18.5312 7.01432 18.2741 6.93945 17.9941 6.88086C17.7142 6.82227 17.3789 6.78646 16.9883 6.77344C16.6107 6.76042 16.2656 6.75065 15.9531 6.74414C15.6406 6.73763 14.9896 6.73438 14 6.73438ZM13.3555 8.04297C13.4466 8.04297 13.5475 8.04297 13.6582 8.04297C13.7689 8.04297 13.8828 8.04297 14 8.04297C14.9766 8.04297 15.6146 8.04622 15.9141 8.05273C16.2135 8.05925 16.5521 8.06901 16.9297 8.08203C17.2943 8.09505 17.5807 8.1276 17.7891 8.17969C17.9974 8.23177 18.1667 8.28385 18.2969 8.33594C18.4661 8.40104 18.6159 8.47591 18.7461 8.56055C18.8763 8.64518 19 8.7526 19.1172 8.88281C19.2474 9 19.3548 9.1237 19.4395 9.25391C19.5241 9.38411 19.599 9.53385 19.6641 9.70312C19.7161 9.83333 19.7682 10.0026 19.8203 10.2109C19.8724 10.4193 19.9049 10.6992 19.918 11.0508C19.931 11.4414 19.9408 11.7865 19.9473 12.0859C19.9538 12.3854 19.957 13.0234 19.957 14C19.957 14.9635 19.9538 15.5983 19.9473 15.9043C19.9408 16.2103 19.931 16.5521 19.918 16.9297C19.9049 17.2943 19.8724 17.5807 19.8203 17.7891C19.7682 17.9974 19.7161 18.1602 19.6641 18.2773C19.599 18.4466 19.5241 18.5964 19.4395 18.7266C19.3548 18.8568 19.2474 18.987 19.1172 19.1172C19 19.2474 18.8763 19.3548 18.7461 19.4395C18.6159 19.5241 18.4661 19.599 18.2969 19.6641C18.1667 19.7161 17.9974 19.7682 17.7891 19.8203C17.5807 19.8724 17.2943 19.9049 16.9297 19.918C16.5521 19.931 16.2135 19.9408 15.9141 19.9473C15.6146 19.9538 14.9766 19.957 14 19.957C13.0234 19.957 12.3854 19.9538 12.0859 19.9473C11.7865 19.9408 11.4479 19.931 11.0703 19.918C10.7057 19.9049 10.4193 19.8724 10.2109 19.8203C10.0026 19.7682 9.83333 19.7161 9.70312 19.6641C9.53385 19.599 9.38411 19.5241 9.25391 19.4395C9.1237 19.3548 9 19.2474 8.88281 19.1172C8.7526 18.987 8.64518 18.8568 8.56055 18.7266C8.47591 18.5964 8.40104 18.4466 8.33594 18.2773C8.28385 18.1602 8.23177 17.9974 8.17969 17.7891C8.1276 17.5807 8.09505 17.2943 8.08203 16.9297C8.06901 16.5521 8.05924 16.2103 8.05273 15.9043C8.04622 15.5983 8.04297 14.9635 8.04297 14C8.04297 13.0234 8.04622 12.3854 8.05273 12.0859C8.05924 11.7865 8.06901 11.4414 8.08203 11.0508C8.09505 10.6992 8.1276 10.4193 8.17969 10.2109C8.23177 10.0026 8.28385 9.83333 8.33594 9.70312C8.40104 9.53385 8.47591 9.38411 8.56055 9.25391C8.64518 9.1237 8.7526 8.99349 8.88281 8.86328C9 8.74609 9.1237 8.64518 9.25391 8.56055C9.38411 8.47591 9.53385 8.40104 9.70312 8.33594C9.83333 8.28385 10.0026 8.23177 10.2109 8.17969C10.4193 8.1276 10.7057 8.09505 11.0703 8.08203C11.3958 8.06901 11.6888 8.05925 11.9492 8.05273C12.2096 8.04622 12.6784 8.04297 13.3555 8.04297ZM17.8867 9.25391C17.6393 9.25391 17.431 9.33854 17.2617 9.50781C17.0924 9.67708 17.0078 9.87891 17.0078 10.1133C17.0078 10.3607 17.0924 10.569 17.2617 10.7383C17.431 10.9076 17.6393 10.9922 17.8867 10.9922C18.1211 10.9922 18.3229 10.9076 18.4922 10.7383C18.6615 10.569 18.7461 10.3607 18.7461 10.1133C18.7461 9.87891 18.6615 9.67708 18.4922 9.50781C18.3229 9.33854 18.1211 9.25391 17.8867 9.25391ZM14 10.2695C12.9714 10.2695 12.0924 10.6341 11.3633 11.3633C10.6341 12.0924 10.2695 12.9714 10.2695 14C10.2695 15.0286 10.6341 15.9076 11.3633 16.6367C12.0924 17.3659 12.9714 17.7305 14 17.7305C15.0286 17.7305 15.9076 17.3659 16.6367 16.6367C17.3659 15.9076 17.7305 15.0286 17.7305 14C17.7305 12.9714 17.3659 12.0924 16.6367 11.3633C15.9076 10.6341 15.0286 10.2695 14 10.2695ZM14 11.5781C14.6641 11.5781 15.2337 11.8158 15.709 12.291C16.1842 12.7663 16.4219 13.3359 16.4219 14C16.4219 14.6641 16.1842 15.2337 15.709 15.709C15.2337 16.1842 14.6641 16.4219 14 16.4219C13.3359 16.4219 12.7663 16.1842 12.291 15.709C11.8158 15.2337 11.5781 14.6641 11.5781 14C11.5781 13.3359 11.8158 12.7663 12.291 12.291C12.7663 11.8158 13.3359 11.5781 14 11.5781Z" fill="#110D57"/>
</svg>
