<svg width="28" height="28" viewBox="0 0 28 28" fill="none" xmlns="http://www.w3.org/2000/svg">
<mask id="path-1-inside-1_709_489" fill="white">
<path d="M0 14C0 6.26801 6.26801 0 14 0C21.732 0 28 6.26801 28 14C28 21.732 21.732 28 14 28C6.26801 28 0 21.732 0 14Z"/>
</mask>
<path d="M14 28V27C6.8203 27 1 21.1797 1 14H0H-1C-1 22.2843 5.71573 29 14 29V28ZM28 14H27C27 21.1797 21.1797 27 14 27V28V29C22.2843 29 29 22.2843 29 14H28ZM14 0V1C21.1797 1 27 6.8203 27 14H28H29C29 5.71573 22.2843 -1 14 -1V0ZM14 0V-1C5.71573 -1 -1 5.71573 -1 14H0H1C1 6.8203 6.8203 1 14 1V0Z" fill="#110D57" mask="url(#path-1-inside-1_709_489)"/>
<path d="M9.46875 11.0117C9.8724 11.0117 10.2174 10.8685 10.5039 10.582C10.7904 10.2956 10.9336 9.94401 10.9336 9.52734C10.9336 9.1237 10.7904 8.77865 10.5039 8.49219C10.2174 8.20573 9.8724 8.0625 9.46875 8.0625C9.05208 8.0625 8.70052 8.20573 8.41406 8.49219C8.1276 8.77865 7.98438 9.1237 7.98438 9.52734C7.98438 9.94401 8.1276 10.2956 8.41406 10.582C8.70052 10.8685 9.05208 11.0117 9.46875 11.0117ZM12.3008 12.1055H14.7617V13.2383C14.7617 13.2383 14.9473 13.0169 15.3184 12.5742C15.6895 12.1315 16.3307 11.9102 17.2422 11.9102C18.0495 11.9102 18.7428 12.1445 19.3223 12.6133C19.9017 13.082 20.1914 13.9219 20.1914 15.1328V20.25H17.6523V15.7578C17.6523 15.0417 17.4993 14.5957 17.1934 14.4199C16.8874 14.2441 16.5911 14.1562 16.3047 14.1562C15.6927 14.1562 15.3021 14.3613 15.1328 14.7715C14.9635 15.1816 14.8789 15.569 14.8789 15.9336V20.25H12.3008V12.1055ZM8.16016 12.1055H10.7578V20.25H8.16016V12.1055Z" fill="#110D57"/>
</svg>
