<svg width="28" height="28" viewBox="0 0 28 28" fill="none" xmlns="http://www.w3.org/2000/svg">
<mask id="path-1-inside-1_709_488" fill="white">
<path d="M0 14C0 6.26801 6.26801 0 14 0C21.732 0 28 6.26801 28 14C28 21.732 21.732 28 14 28C6.26801 28 0 21.732 0 14Z"/>
</mask>
<path d="M14 28V27C6.8203 27 1 21.1797 1 14H0H-1C-1 22.2843 5.71573 29 14 29V28ZM28 14H27C27 21.1797 21.1797 27 14 27V28V29C22.2843 29 29 22.2843 29 14H28ZM14 0V1C21.1797 1 27 6.8203 27 14H28H29C29 5.71573 22.2843 -1 14 -1V0ZM14 0V-1C5.71573 -1 -1 5.71573 -1 14H0H1C1 6.8203 6.8203 1 14 1V0Z" fill="#110D57" mask="url(#path-1-inside-1_709_488)"/>
<g clip-path="url(#clip0_709_488)">
<mask id="mask0_709_488" style="mask-type:luminance" maskUnits="userSpaceOnUse" x="6" y="6" width="16" height="16">
<path d="M6 6H22V22H6V6Z" fill="white"/>
</mask>
<g mask="url(#mask0_709_488)">
<path d="M18.6 6.74951H21.0537L15.6937 12.8912L22 21.2501H17.0629L13.1931 16.1815L8.77029 21.2501H6.31429L12.0469 14.6787L6 6.75065H11.0629L14.5554 11.3827L18.6 6.74951ZM17.7371 19.7781H19.0971L10.32 8.14494H8.86171L17.7371 19.7781Z" fill="#110D57"/>
</g>
</g>
<defs>
<clipPath id="clip0_709_488">
<rect width="16" height="16" fill="white" transform="translate(6 6)"/>
</clipPath>
</defs>
</svg>
